# xmcd CD database file
#
# Track frame offsets:
#	150
#	20322
#	52344
#	76443
#	102640
#	120807
#	137239
#	164035
#	184330
#	219730
#	253824
#	278555
#
# Disc length: 3974 seconds
#
# Revision: 0
# Processed by: cddbd v1.5.1PL0 Copyright (c) Steve Scherf et al.
# Submitted via: CDex 1.50
#
DISCID=b50f840c
DTITLE=The Stan Bock Ensemble - Night Grooves
DYEAR=2003
DGENRE=Jazz
TTITLE0=Night Flight From Nairobi
TTITLE1=I thought about you
TTITLE2=Ah que Linda
TTITLE3=Ms. Bea goes to tea
TTITLE4=Stanadelic
TTITLE5=Reflections
TTITLE6=Sho 'nuff did
TTITLE7=Gabby's Getaway
TTITLE8=Unauthroized Funk
TTITLE9=Escapee
TTITLE10=Straight, No Chaser
TTITLE11=Goovin' with J.R.
EXTD=YEAR: 2003
EXTT0=
EXTT1=
EXTT2=
EXTT3=
EXTT4=
EXTT5=
EXTT6=
EXTT7=
EXTT8=
EXTT9=
EXTT10=
EXTT11=
PLAYORDER=
